<?xml version="1.0" standalone="no"?>
<!DOCTYPE svg PUBLIC "-//W3C//DTD SVG 20010904//EN"
 "http://www.w3.org/TR/2001/REC-SVG-20010904/DTD/svg10.dtd">
<svg version="1.0" xmlns="http://www.w3.org/2000/svg"
 width="504.000000pt" height="512.000000pt" viewBox="0 0 504.000000 512.000000"
 preserveAspectRatio="xMidYMid meet">

<g transform="translate(0.000000,512.000000) scale(0.100000,-0.100000)"
fill="#000000" stroke="none">
<path d="M2403 5106 c-92 -30 -167 -98 -209 -191 -36 -79 -38 -182 -4 -270 21
-58 63 -101 1028 -1067 l1006 -1007 -164 -168 c-91 -92 -536 -543 -990 -1001
-454 -458 -837 -852 -853 -874 -87 -131 -63 -323 55 -434 73 -68 126 -89 228
-89 151 0 105 -39 908 773 1413 1430 1560 1582 1590 1642 24 48 27 67 27 150
0 83 -3 102 -27 150 -23 46 -214 243 -1163 1197 -1257 1264 -1179 1193 -1318
1199 -43 2 -89 -2 -114 -10z"/>
<path d="M281 5029 c-149 -29 -260 -158 -269 -312 -5 -81 10 -147 46 -205 15
-23 471 -468 1014 -989 544 -521 988 -950 988 -954 0 -4 -408 -402 -908 -885
-1096 -1060 -1082 -1046 -1112 -1109 -37 -76 -40 -192 -8 -272 57 -140 167
-215 315 -215 126 0 151 16 438 300 400 396 668 657 1175 1147 914 882 888
854 912 983 15 78 -8 176 -55 243 -35 50 -32 47 -1364 1333 -770 743 -912 876
-965 903 -69 35 -138 46 -207 32z"/>
</g>
</svg>
