<?xml version="1.0" standalone="no"?>
<!DOCTYPE svg PUBLIC "-//W3C//DTD SVG 20010904//EN"
 "http://www.w3.org/TR/2001/REC-SVG-20010904/DTD/svg10.dtd">
<svg version="1.0" xmlns="http://www.w3.org/2000/svg"
 width="280.000000pt" height="512.000000pt" viewBox="0 0 280.000000 512.000000"
 preserveAspectRatio="xMidYMid meet">

<g transform="translate(0.000000,512.000000) scale(0.100000,-0.100000)"
fill="#000000" stroke="none">
<path d="M220 5111 c-80 -25 -149 -81 -187 -154 -9 -18 -18 -64 -21 -107 -8
-141 -81 -57 1065 -1228 562 -576 1023 -1050 1023 -1053 0 -4 -460 -481 -1022
-1060 -1142 -1178 -1074 -1100 -1066 -1238 7 -113 55 -189 152 -238 115 -58
242 -36 339 60 168 166 2226 2295 2243 2321 60 90 60 223 0 312 -18 27 -2079
2142 -2238 2296 -85 83 -195 117 -288 89z"/>
</g>
</svg>
